<?xml version="1.0" encoding="iso-8859-1"?>
<!-- Generator: Adobe Illustrator 19.0.0, SVG Export Plug-In . SVG Version: 6.00 Build 0)  -->
<svg version="1.1" id="Layer_1" xmlns="http://www.w3.org/2000/svg" xmlns:xlink="http://www.w3.org/1999/xlink" x="0px" y="0px"
	 viewBox="0 0 473.658 473.658" style="enable-background:new 0 0 473.658 473.658;" xml:space="preserve">
<circle style="fill:#E79E2D;" cx="236.829" cy="236.829" r="236.829"/>
<g>
	<path style="fill:#FFFFFF;" d="M205.801,122.042c-22.778,0-45.56,0-68.334,0c-6.081,0-11.301,5-11.301,11.14
		c0.004,22.774,0.007,45.552,0.007,68.326c0.004,14.487,22.445,14.614,22.445,0.161c-0.004-13.777-0.004-27.55-0.004-41.326
		c16.136,16.136,32.277,32.276,48.413,48.409c10.224,10.224,26.035-5.703,15.785-15.953c-16.11-16.11-32.217-32.213-48.323-48.319
		c13.717,0,27.437,0,41.154,0C220.128,144.487,220.255,122.042,205.801,122.042z"/>
	<path style="fill:#FFFFFF;" d="M323.064,261.753c0.004,13.777,0.004,27.546,0.004,41.323
		c-16.136-16.136-32.276-32.276-48.413-48.413c-10.224-10.224-26.035,5.699-15.785,15.953c16.11,16.11,32.213,32.213,48.323,48.323
		c-13.721,0-27.437,0.004-41.154,0.004c-14.487,0.004-14.614,22.445-0.161,22.445c22.778-0.004,45.56-0.007,68.334-0.007
		c6.081-0.004,11.301-5,11.301-11.14c-0.004-22.774-0.007-45.548-0.007-68.323C345.506,247.427,323.064,247.3,323.064,261.753z"/>
	<path style="fill:#FFFFFF;" d="M265.882,144.494c13.777-0.004,27.546-0.004,41.323-0.004
		c-16.136,16.133-32.276,32.273-48.413,48.405c-10.224,10.224,5.699,26.035,15.953,15.785c16.11-16.106,32.213-32.209,48.323-48.316
		c0,13.713,0.004,27.43,0.004,41.147c0.004,14.487,22.445,14.614,22.445,0.161c-0.004-22.774-0.007-45.552-0.007-68.326
		c0-6.081-5-11.301-11.14-11.301c-22.774,0.004-45.548,0.007-68.323,0.007C251.556,122.053,251.428,144.494,265.882,144.494z"/>
	<path style="fill:#FFFFFF;" d="M205.801,318.932c-13.777,0.004-27.55,0.004-41.323,0.004
		c16.133-16.133,32.273-32.273,48.405-48.405c10.224-10.224-5.699-26.035-15.953-15.785c-16.11,16.106-32.213,32.213-48.319,48.319
		c0-13.717,0-27.434,0-41.151c0-14.487-22.445-14.614-22.445-0.161c0,22.774,0,45.552,0,68.326c0,6.081,5,11.301,11.14,11.301
		c22.778-0.004,45.552-0.007,68.326-0.007C220.128,341.373,220.255,318.932,205.801,318.932z"/>
	<path style="fill:#FFFFFF;" d="M391.645,98.322c-7.82-21.869-24.812-24.756-44.92-24.756c-54.142,0-108.284,0-162.43,0
		c-20.725,0-41.45,0-62.178,0c-20.62,0-36.648,7.958-40.545,29.042c-0.314,1.043-0.542,2.158-0.542,3.429
		c-0.112,0.976-0.093,1.87,0,2.715c0,40.792,0,81.583,0,122.378c0,41.356-4.173,85.102,0.565,126.249
		c2.693,23.384,24.39,27.748,43.54,27.748c23.141,0,46.281,0,69.422,0c52.313,0,104.63,0,156.944,0
		c20.183,0,41.087-8.635,41.087-32.549c0-13.997,0-27.995,0-41.992c0-56.887,0-113.77,0-170.657
		C392.595,127.969,395.833,110.038,391.645,98.322z M370.149,142.464c0,28.309,0,56.621,0,84.93c0,41.693,0,83.393,0,125.09
		c0,16.092-39.236,10.194-46.461,10.194c-28.309,0-56.621,0-84.93,0c-41.693,0-83.393,0-125.09,0
		c-16.088,0-10.19-39.24-10.19-46.461c0-28.309,0-56.621,0-84.93c0-41.693,0-83.393,0-125.09
		c1.885-16.364,37.531-10.187,46.457-10.187c28.309,0,56.621,0,84.93,0c41.693,0,83.393,0,125.09,0
		C376.051,96.011,370.149,135.239,370.149,142.464z"/>
</g>
<g>
</g>
<g>
</g>
<g>
</g>
<g>
</g>
<g>
</g>
<g>
</g>
<g>
</g>
<g>
</g>
<g>
</g>
<g>
</g>
<g>
</g>
<g>
</g>
<g>
</g>
<g>
</g>
<g>
</g>
</svg>
